<?xml version="1.0" encoding="UTF-8"?>
<svg id="Layer_1" xmlns="http://www.w3.org/2000/svg" viewBox="0 0 512 512">
    <defs>
        <style>.cls-1{fill:#fff;opacity:.02;stroke-width:0px;}</style>
    </defs>
    <path class="cls-1"
        d="M415.56,422.33c-6.19,6.2-24.3-1.25-35.84.95-.03,0-.06,0-.08.02-95.9,19.99-150.94,1.09-200.81-48.78-27.23-27.23-41.89-57.9-46.96-88.16-5.81,7.81-10.95,14.35-14.15,19.53-10.6,17.19-29.29,39.95-26.34,4.47,2.93-35.46-28.92-75.03-2.92-127.17,21.14-42.4,53.46-46.41,64.81-46.43-17.17-15.96-39.38-29.13-70.52-36.05-5.42-1.21-8.83-6.57-7.63-11.99,1.21-5.43,6.58-8.82,11.99-7.63,34.73,7.72,59.69,22.44,78.82,39.96,4.26-8.08,12.07-14.43,23.57-16.69,65.13-12.81,84.96,12.71,117.14.84,24.12-8.9,12.61,11.46,1.78,25.13,27.1,7.25,54.01,21.32,77.53,44.83,60.23,60.25,61.51,158.52,33.63,212.14,0,.15.05.26.03.43-.95,10.88,6.86,23.68-4.05,34.59Z" />
</svg>